<svg xmlns="http://www.w3.org/2000/svg" version="1.1" xmlns:xlink="http://www.w3.org/1999/xlink" width="512" height="512" x="0" y="0" viewBox="0 0 512 512" style="enable-background:new 0 0 512 512" xml:space="preserve" class=""><g><path d="M172.055 287.331a22.2 22.2 0 0 1 30.951-31.82l32.077 31.547 73.733-73.4a22.045 22.045 0 0 1 15.657-6.466h.071a21.984 21.984 0 0 1 15.649 6.542 22.258 22.258 0 0 1-.075 31.395l-89.253 88.763a22.265 22.265 0 0 1-31.128.172zm243.2-172.814A223.7 223.7 0 0 0 260 48.581V17a4 4 0 0 0-6.644-3L192.3 67.794a4 4 0 0 0 0 6l61.058 53.764a4 4 0 0 0 6.643-3V93.087c97.814 2.137 176.731 82.369 176.731 180.686C436.731 373.428 355.655 454.5 256 454.5c-99.671 0-180.759-81.076-180.759-180.731a179.548 179.548 0 0 1 52.939-127.788 4 4 0 0 0 0-5.655l-25.772-25.8a4 4 0 0 0-2.828-1.173 4 4 0 0 0-2.828 1.171A225.218 225.218 0 1 0 415.257 433.03a225.214 225.214 0 0 0 0-318.513z" fill="#ffffff" opacity="1" data-original="#000000"></path></g></svg>