<svg xmlns="http://www.w3.org/2000/svg" version="1.1" xmlns:xlink="http://www.w3.org/1999/xlink" width="512" height="512" x="0" y="0" viewBox="0 0 24 24" style="enable-background:new 0 0 512 512" xml:space="preserve"><g><path d="M4 6.081c0-1.665 1.583-3.475 3.14-4.224a4.573 4.573 0 0 1-.51-.598C6.258.731 6.679 0 7.325 0h2.347c.683 0 1.056.776.651 1.326-.14.19-.298.368-.462.531 1.557.75 3.138 2.559 3.138 4.223 0 1.61-1.233 2.919-2.75 2.919h-3.5c-1.517 0-2.75-1.31-2.75-2.919Zm11.707-1.788L17 3v3a1 1 0 1 0 2 0V3l1.293 1.293a.997.997 0 0 0 1.414 0 .999.999 0 0 0 0-1.414L19.414.586a1.99 1.99 0 0 0-1.35-.584L18 0a1.99 1.99 0 0 0-1.414.586l-2.293 2.293a.999.999 0 1 0 1.414 1.414Zm7.441 4.388a2.592 2.592 0 0 0-1.878-.678 2.574 2.574 0 0 0-1.794.835l-3.541 3.737c.032.21.065.42.065.638a4.233 4.233 0 0 1-3.617 4.17l-4.252.596A1 1 0 0 1 7.848 16l4.162-.583c.936-.134 1.748-.806 1.94-1.732A2.218 2.218 0 0 0 11.786 11H3.999a4 4 0 0 0-4 4v5a4 4 0 0 0 4 4h4.262a9.999 9.999 0 0 0 7.374-3.246l7.702-8.409a2.618 2.618 0 0 0-.189-3.665Z" fill="#ffffff" opacity="1" data-original="#000000"></path></g></svg>