<svg xmlns="http://www.w3.org/2000/svg" version="1.1" xmlns:xlink="http://www.w3.org/1999/xlink" width="512" height="512" x="0" y="0" viewBox="0 0 24 24" style="enable-background:new 0 0 512 512" xml:space="preserve" class=""><g><path d="M21 6H5a3.012 3.012 0 0 1-2.235-.999A2.995 2.995 0 0 1 5 4h18c1.308-.006 1.307-1.995 0-2H5a5 5 0 0 0-5 5v10a5 5 0 0 0 5 5h16a3 3 0 0 0 3-3V9a3 3 0 0 0-3-3Zm-1 9c-1.308-.006-1.308-1.994 0-2 1.308.006 1.308 1.994 0 2Z" fill="#ffffff" opacity="1" data-original="#000000" class=""></path></g></svg>